PathFileType	4	(X/Y/Z)	intermediate\S1_nor_med_left\tmpk2z6hi7d.trc
DataRate	CameraRate	NumFrames	NumMarkers	Units	OrigDataRate	OrigDataStartFrame	OrigNumFrames
250.0	250.0	17	18	mm	250.0	960	7677
Frame#	Time	c7			r_should			l_should			clavicle			r_upa			r_elb_l			r_elb_m			r_low			r_wri_l			r_wri_m			r_met			l_upa			l_elb_l			l_elb_m			l_low			l_wri_l			l_wri_m			l_met			
		X	Y	Z	X	Y	Z	X	Y	Z	X	Y	Z	X	Y	Z	X	Y	Z	X	Y	Z	X	Y	Z	X	Y	Z	X	Y	Z	X	Y	Z	X	Y	Z	X	Y	Z	X	Y	Z	X	Y	Z	X	Y	Z	X	Y	Z	X	Y	Z	
960	3.836000	890.993713	1422.005371	88.246124	981.873779	1354.424683	261.616058	916.976685	1347.349487	-107.785141	1020.982483	1296.499512	64.219925	983.444092	1141.487671	309.531769	1005.447021	1039.843872	312.327820	921.040466	1024.372070	250.937851	960.661438	910.514709	330.061157	1037.875244	820.999695	292.077942	969.699524	804.765198	314.457581	1073.666016	743.271240	307.403229	949.500061	1134.727295	-137.412842	959.460083	1089.283203	-144.584045	977.520508	1043.489014	-41.810532	1062.416992	1135.105713	-101.982826	1054.920410	1237.988770	-119.311043	1098.977295	1221.416138	-64.388245	1096.259155	1302.471191	-136.190155	
961	3.840000	890.958801	1421.998169	88.245102	981.844238	1354.435425	261.619263	916.970398	1347.308838	-107.776039	1020.894531	1296.582886	64.219612	983.435120	1141.499146	309.539978	1005.469299	1039.853760	312.335693	921.059814	1024.373657	250.940292	960.729126	910.514954	330.043732	1037.946899	821.018982	292.028198	969.783813	804.764526	314.437286	1073.766479	743.305420	307.325989	949.620361	1134.666504	-137.285065	959.569946	1089.210327	-144.373840	977.861267	1043.621826	-41.473225	1062.324219	1135.388672	-101.703705	1054.494019	1238.244019	-119.096664	1098.593750	1221.863037	-64.138847	1095.543335	1302.907227	-135.974564	
962	3.844000	890.911194	1421.989502	88.237694	981.810974	1354.443359	261.622742	916.953735	1347.265625	-107.764168	1020.806641	1296.671875	64.226791	983.436096	1141.514893	309.550873	1005.497925	1039.868286	312.329956	921.083557	1024.366699	250.937515	960.798157	910.514465	330.030212	1038.016357	821.041138	291.976166	969.866455	804.765686	314.419922	1073.869263	743.338074	307.239899	949.732849	1134.604858	-137.156662	959.664612	1089.161621	-144.186020	978.131958	1043.697998	-41.165413	1062.234131	1135.665161	-101.429543	1054.083130	1238.485840	-118.894386	1098.221436	1222.311523	-63.905777	1094.857178	1303.336060	-135.772018	
963	3.848000	890.855408	1421.984375	88.227196	981.782471	1354.451538	261.629303	916.926697	1347.221313	-107.757156	1020.715576	1296.753174	64.226341	983.445679	1141.532837	309.552338	1005.533569	1039.888916	312.315063	921.115234	1024.359253	250.935547	960.863525	910.513245	330.015808	1038.080322	821.062439	291.929810	969.949036	804.768066	314.408478	1073.971924	743.378296	307.157990	949.833984	1134.546021	-137.036423	959.751160	1089.102417	-144.002243	978.292297	1043.760254	-40.905155	1062.146240	1135.922241	-101.163704	1053.906250	1238.839600	-119.016006	1097.842896	1222.723755	-63.697582	1094.186035	1303.719971	-135.591293	
964	3.852000	890.797668	1421.977539	88.230301	981.751282	1354.467163	261.632385	916.875793	1347.172485	-107.751015	1020.604736	1296.825317	64.210297	983.450867	1141.558105	309.555115	1005.566589	1039.906006	312.301514	921.138794	1024.351685	250.934601	960.925964	910.518250	330.003052	1038.143433	821.077576	291.882812	970.033997	804.779175	314.407318	1074.075562	743.414001	307.067352	949.925049	1134.491211	-136.922302	959.836182	1089.048340	-143.818375	978.445190	1043.820679	-40.631104	1062.059692	1136.158569	-100.906998	1054.021240	1239.353516	-119.547981	1097.472168	1223.106445	-63.496387	1093.536621	1304.044678	-135.412216	
965	3.856000	890.725647	1421.967285	88.236572	981.718933	1354.476440	261.626495	916.807373	1347.121948	-107.743355	1020.501160	1296.900513	64.211861	983.464478	1141.562622	309.548798	1005.595825	1039.915771	312.286743	921.155151	1024.350220	250.948547	960.988220	910.525879	329.994476	1038.210083	821.097351	291.833191	970.117188	804.789917	314.402985	1074.165649	743.449463	306.980438	950.010559	1134.438721	-136.815308	959.918396	1088.989990	-143.655746	978.465088	1043.834351	-40.416641	1061.966553	1136.378662	-100.663872	1053.782715	1239.652954	-119.577209	1097.119141	1223.484009	-63.283905	1092.905273	1304.345581	-135.222626	
966	3.860000	890.651611	1421.954712	88.252090	981.681702	1354.486450	261.627411	916.731567	1347.073975	-107.738960	1020.626282	1296.821167	64.259666	983.482239	1141.573853	309.541656	1005.633362	1039.936523	312.266174	921.179810	1024.349976	250.964844	961.049927	910.536743	329.988190	1038.275635	821.116394	291.788940	970.199036	804.794434	314.402649	1074.260986	743.487610	306.893280	950.082153	1134.390137	-136.718933	960.001831	1088.922485	-143.489014	978.470276	1043.824951	-40.229877	1061.867676	1136.583618	-100.430435	1053.445557	1239.927490	-119.482178	1096.772949	1223.837280	-63.078335	1092.319458	1304.649170	-135.037903	
967	3.864000	890.575439	1421.947754	88.276268	981.639648	1354.500488	261.631134	916.646851	1347.030151	-107.734940	1021.033508	1296.512573	64.359810	983.505249	1141.583496	309.535583	1005.671265	1039.955566	312.259094	921.208069	1024.355591	250.978745	961.116455	910.548157	329.989685	1038.337280	821.139343	291.752228	970.282043	804.803955	314.412689	1074.356079	743.525024	306.813232	950.146667	1134.346436	-136.630463	960.072937	1088.867065	-143.346939	978.419495	1043.785767	-40.075581	1061.761963	1136.786133	-100.210236	1053.083130	1240.208374	-119.347153	1096.441162	1224.143066	-62.894939	1091.766113	1304.939575	-134.868805	
968	3.868000	890.489380	1421.940308	88.298859	981.601135	1354.515137	261.641724	916.549927	1346.989990	-107.721550	1021.094299	1296.443970	64.394051	983.531555	1141.601074	309.533417	1005.699158	1039.970459	312.261719	921.238159	1024.353149	250.981155	961.178955	910.557678	329.997009	1038.400879	821.162781	291.713959	970.363647	804.814697	314.423279	1074.439941	743.557190	306.744232	950.205322	1134.306152	-136.548172	960.127747	1088.833374	-143.223373	978.457031	1043.766113	-39.889416	1061.650146	1136.986450	-100.007523	1052.748291	1240.437744	-119.220589	1096.129272	1224.435913	-62.719955	1091.205933	1305.214111	-134.708389	
969	3.872000	890.406372	1421.935425	88.319557	981.557556	1354.535400	261.654022	916.440491	1346.950928	-107.701187	1021.067139	1296.431885	64.411201	983.564209	1141.624268	309.531555	1005.737305	1039.995239	312.249908	921.264038	1024.359375	250.995132	961.244873	910.573120	330.003479	1038.465942	821.191467	291.681000	970.445557	804.829590	314.437531	1074.529419	743.594666	306.671906	950.251770	1134.271362	-136.472580	960.171509	1088.804321	-143.103134	978.580322	1043.776245	-39.692970	1061.535034	1137.177612	-99.828377	1052.423950	1240.622559	-119.089043	1095.821411	1224.722656	-62.540821	1090.668701	1305.440186	-134.577774	
970	3.876000	890.313782	1421.930542	88.349777	981.510254	1354.559937	261.660400	916.328979	1346.910400	-107.672501	1021.008484	1296.448364	64.424217	983.606445	1141.643555	309.530518	1005.778809	1040.020264	312.238922	921.289001	1024.371094	251.020645	961.311707	910.589722	330.013031	1038.529297	821.219666	291.646790	970.524963	804.849060	314.457703	1074.615356	743.634949	306.604370	950.278992	1134.248657	-136.405579	960.199829	1088.764893	-142.990952	978.633118	1043.789429	-39.542656	1061.416870	1137.356079	-99.669533	1052.107788	1240.749390	-118.942116	1095.516602	1225.009766	-62.371292	1090.168701	1305.637573	-134.451874	
971	3.880000	890.214783	1421.917969	88.383858	981.456604	1354.577759	261.672363	916.206238	1346.867310	-107.645737	1020.940186	1296.465698	64.438629	983.638245	1141.656982	309.525909	1005.816711	1040.039307	312.234222	921.309692	1024.371216	251.039200	961.382507	910.605896	330.028320	1038.592773	821.241882	291.607269	970.606140	804.866760	314.480103	1074.700439	743.672852	306.526062	950.290100	1134.230225	-136.340851	960.204712	1088.737427	-142.901840	978.666504	1043.794678	-39.419331	1061.292603	1137.522217	-99.530396	1051.807251	1240.849731	-118.805939	1095.225586	1225.275879	-62.233631	1089.710571	1305.830444	-134.347015	
972	3.884000	890.115112	1421.907471	88.414642	981.401062	1354.592773	261.679565	916.073059	1346.830688	-107.621208	1020.862915	1296.471680	64.438629	983.675049	1141.684082	309.527191	1005.853638	1040.062866	312.226013	921.328186	1024.372925	251.058731	961.451111	910.624146	330.048889	1038.651611	821.268066	291.567596	970.684753	804.878845	314.503021	1074.789917	743.703796	306.441772	950.288696	1134.212891	-136.283493	960.194092	1088.716919	-142.833160	978.656616	1043.800049	-39.321899	1061.166138	1137.669556	-99.407318	1051.280029	1240.788818	-118.337006	1094.947021	1225.497314	-62.125622	1089.284668	1305.991455	-134.263916	
973	3.888000	890.009399	1421.901001	88.447510	981.347656	1354.607300	261.688354	915.935547	1346.795044	-107.592430	1020.772949	1296.481201	64.427612	983.706299	1141.706421	309.530029	1005.894653	1040.085327	312.238281	921.353455	1024.380005	251.089340	961.513306	910.635071	330.066986	1038.707031	821.288513	291.534393	970.754089	804.894897	314.529358	1074.870483	743.729858	306.369843	950.267822	1134.186523	-136.232574	960.165405	1088.702515	-142.766159	978.644470	1043.813232	-39.226364	1061.040283	1137.804932	-99.299911	1050.469849	1240.531372	-117.460518	1094.678101	1225.699951	-62.017078	1088.886475	1306.150757	-134.176453	
974	3.892000	889.898193	1421.884033	88.486664	981.303223	1354.620728	261.696747	915.787109	1346.761108	-107.567131	1020.687683	1296.500977	64.435349	983.731567	1141.723999	309.542480	1005.926392	1040.098755	312.248291	921.373962	1024.378418	251.119293	961.573486	910.647522	330.087921	1038.761841	821.306580	291.499939	970.821655	804.902466	314.557800	1074.940430	743.760681	306.306061	950.225586	1134.172241	-136.184875	960.127563	1088.691528	-142.703049	978.672729	1043.842285	-39.106613	1060.910034	1137.935913	-99.205811	1050.063354	1240.536255	-117.176682	1094.412109	1225.873413	-61.906616	1088.511963	1306.310913	-134.105835	
975	3.896000	889.780151	1421.857910	88.522362	981.245728	1354.633423	261.714874	915.630920	1346.729370	-107.541992	1020.595337	1296.525757	64.432579	983.757263	1141.748901	309.555695	1005.947571	1040.107788	312.250854	921.390320	1024.369995	251.153137	961.630920	910.655518	330.114166	1038.812744	821.331177	291.473297	970.882812	804.904846	314.587402	1075.010986	743.794312	306.244324	950.170837	1134.165039	-136.130875	960.076355	1088.680786	-142.646225	978.722229	1043.861328	-38.980736	1060.773804	1138.055908	-99.122940	1049.768311	1240.604126	-117.035149	1094.162476	1226.016724	-61.823963	1088.176636	1306.449463	-134.046570	
976	3.900000	889.656921	1421.850220	88.560417	981.187805	1354.653320	261.734924	915.468201	1346.700439	-107.512070	1020.503662	1296.544312	64.433395	983.776367	1141.770752	309.573578	1005.964294	1040.118896	312.256775	921.398193	1024.358276	251.184052	961.682434	910.659058	330.139862	1038.859253	821.352112	291.451965	970.945435	804.914856	314.619293	1075.081055	743.829102	306.175385	950.107605	1134.158447	-136.072205	960.012939	1088.669556	-142.588364	978.726013	1043.887329	-38.887535	1060.635864	1138.157104	-99.052475	1049.510620	1240.677612	-116.933952	1093.940918	1226.142944	-61.753437	1087.875488	1306.568726	-133.994308	
